<?xml version="1.0" encoding="utf-8"?>
<!-- Generator: Adobe Illustrator 15.1.0, SVG Export Plug-In . SVG Version: 6.00 Build 0)  -->
<!DOCTYPE svg PUBLIC "-//W3C//DTD SVG 1.1//EN" "http://www.w3.org/Graphics/SVG/1.1/DTD/svg11.dtd">
<svg version="1.1" id="Layer_1" xmlns="http://www.w3.org/2000/svg" xmlns:xlink="http://www.w3.org/1999/xlink" x="0px" y="0px"
	 width="502.062px" height="337.113px" viewBox="0 0 502.062 337.113" enable-background="new 0 0 502.062 337.113"
	 xml:space="preserve">
<g>
	<polygon fill="#262261" points="472.489,248.454 14.433,248.454 14.433,162.22 14.433,83.229 472.489,83.229 424.138,160.583 	"/>
	<g>
		<path fill="#FFFFFF" d="M141.329,116.167v19.873H94.331v21.902h44.677v19.874H94.331v39.744H71.702V116.167H141.329z"/>
		<path fill="#FFFFFF" d="M160.477,116.167h22.627v101.394h-22.627V116.167z"/>
		<path fill="#FFFFFF" d="M231.771,136.403c-2.178,1.789-3.265,4.158-3.265,7.107c0,2.95,1.327,5.293,3.988,7.033
			c2.659,1.742,8.798,3.798,18.424,6.168c9.62,2.369,17.089,5.923,22.41,10.662c5.317,4.737,7.976,11.651,7.976,20.741
			c0,9.091-3.408,16.462-10.224,22.124c-6.817,5.655-15.788,8.484-26.907,8.484c-16.055,0-30.512-5.951-43.372-17.845l13.491-16.535
			c10.925,9.575,21.03,14.361,30.314,14.361c4.157,0,7.423-0.895,9.792-2.685c2.366-1.79,3.552-4.207,3.552-7.254
			c0-3.044-1.257-5.463-3.768-7.251c-2.517-1.79-7.498-3.604-14.943-5.44c-11.798-2.804-20.429-6.456-25.892-10.952
			c-5.465-4.496-8.196-11.554-8.196-21.178c0-9.621,3.456-17.044,10.371-22.267c6.914-5.221,15.545-7.833,25.894-7.833
			c6.767,0,13.536,1.16,20.307,3.482c6.768,2.32,12.669,5.608,17.698,9.863l-11.46,16.537c-8.802-6.673-17.892-10.009-27.271-10.009
			C236.919,133.72,233.945,134.614,231.771,136.403z"/>
		<path fill="#FFFFFF" d="M300.599,116.167h22.627v41.631l38.295-41.631h27.994l-40.323,44.822
			c3.48,4.836,9.911,13.854,19.293,27.054c9.377,13.201,16.39,23.04,21.03,29.518h-26.397l-29.736-40.034l-10.155,11.315v28.719
			h-22.627V116.167z"/>
	</g>
</g>
</svg>
